<svg id="_x33_0" enable-background="new 0 0 64 64" height="512" viewBox="0 0 64 64" width="512" xmlns="http://www.w3.org/2000/svg"><g><path d="m35 19h-6v10h6zm-2 2v2h-2v-2zm-2 6v-2h2v2z"/><path d="m43 13.11v-8.11c0-2.206-1.794-4-4-4h-2v2h-10v-2h-2c-2.206 0-4 1.794-4 4v8.11c-.537.549-.98 1.188-1.315 1.89h-1.685c-3.86 0-7 3.14-7 7v6c0 1.654 1.346 3 3 3s3-1.346 3-3v-6c0-.551.449-1 1-1h1v7.791c0 2.941 1.012 5.825 2.849 8.122l.494.617c.424.529.657 1.195.657 1.873v10.597c0 1.627.793 3.061 2 3.974v2.026c0 3.86 3.14 7 7 7s7-3.14 7-7v-2.026c1.207-.914 2-2.348 2-3.974v-10.597c0-.679.233-1.344.657-1.874l.494-.618c1.837-2.296 2.849-5.18 2.849-8.12v-10.791c0-1.902-.765-3.627-2-4.89zm-2-8.11v6.685c-.622-.297-1.294-.503-2-.605v-8.08c1.103 0 2 .897 2 2zm-14 12h10v13c0 1.654-1.346 3-3 3h-4c-1.654 0-3-1.346-3-3zm10-2h-10v-2h10zm-6-8v-2h2v2zm6 2v2h-10v-2zm0-2h-2v-2h2zm-8-2v2h-2v-2zm-4-2v8.08c-.706.102-1.378.308-2 .605v-6.685c0-1.103.897-2 2-2zm-11 26c-.551 0-1-.449-1-1v-1h2v1c0 .551-.449 1-1 1zm4-10c-1.654 0-3 1.346-3 3v3h-2v-3c0-2.757 2.243-5 5-5h1.08c-.047.328-.08.66-.08 1v1zm19 37c0 2.757-2.243 5-5 5s-5-2.243-5-5v-1.101c.323.066.658.101 1 .101h1v1c0 1.654 1.346 3 3 3s3-1.346 3-3v-1h1c.342 0 .677-.035 1-.101zm-6-1h2v1c0 .551-.449 1-1 1s-1-.449-1-1zm5-2h-8c-1.654 0-3-1.346-3-3v-3h14v3c0 1.654-1.346 3-3 3zm7-24.209c0 2.488-.856 4.929-2.41 6.872l-.494.618c-.707.882-1.096 1.991-1.096 3.122v5.597h-14v-5.597c0-1.131-.389-2.24-1.096-3.124l-.494-.617c-1.554-1.943-2.41-4.383-2.41-6.871v-10.791c0-2.414 1.721-4.434 4-4.899v16.899c0 2.757 2.243 5 5 5h4c2.757 0 5-2.243 5-5v-16.899c2.279.465 4 2.484 4 4.899z"/><path d="m29 49h6v2h-6z"/></g></svg>