<svg id="Capa_1" enable-background="new 0 0 512 512" height="512" viewBox="0 0 512 512" width="512" xmlns="http://www.w3.org/2000/svg"><g><path d="m364.421 279.062-17.529-27.2c-6.634-10.292-10.14-22.204-10.14-34.447v-51.605c11.973.548 22.703-8.165 22.703-20.615v-21.597c0-11.367-9.247-20.615-20.614-20.615h-30.655l12.788-64.327c1.896-9.536-.556-19.315-6.724-26.83-6.169-7.516-15.282-11.826-25.005-11.826h-64.952c-9.596 0-18.633 4.218-24.795 11.574-6.163 7.355-8.733 16.992-7.053 26.439l11.555 64.969h-30.84c-11.367 0-20.615 9.248-20.615 20.615v21.597c0 12.449 10.73 21.162 22.703 20.615v51.605c0 12.243-3.506 24.155-10.138 34.446l-17.53 27.2c-8.197 12.72-12.53 27.441-12.53 42.572v144.883c0 25.08 20.404 45.483 45.483 45.483h150.935c25.079 0 45.482-20.403 45.482-45.483v-144.881c0-15.133-4.333-29.854-12.529-42.572zm-19.966-155.464v21.597c0 3.096-2.519 5.615-5.614 5.615h-32.293v-32.827h32.293c3.096-.001 5.614 2.518 5.614 5.615zm-79.269 42.212h26.362v14.703c0 2.772-2.256 5.028-5.028 5.028h-61.04c-2.772 0-5.028-2.256-5.028-5.028v-14.703h8.248c4.142 0 7.5-3.358 7.5-7.5s-3.358-7.5-7.5-7.5h-8.248v-32.827h71.096v32.827h-26.362c-4.143 0-7.5 3.358-7.5 7.5s3.357 7.5 7.5 7.5zm-2.161 84.829h-14.051v-50.099h14.051zm-14.051 15h14.051v50.31c0 .697-.37 1.355-.965 1.716l-10.035 6.096c-1.332.809-3.052-.159-3.052-1.717v-56.405zm-41.761-230.253c-.901-5.066.478-10.234 3.782-14.179 3.305-3.945 8.152-6.207 13.298-6.207h64.952c5.214 0 10.102 2.312 13.41 6.342s4.622 9.275 3.605 14.389l-13.369 67.251h-73.656zm-39.668 109.809v-21.597c0-3.096 2.519-5.615 5.615-5.615h32.292v32.827h-32.292c-3.097 0-5.615-2.519-5.615-5.615zm194.405 321.322c0 16.808-13.675 30.483-30.482 30.483h-150.935c-16.808 0-30.483-13.675-30.483-30.483v-144.883c0-12.243 3.506-24.155 10.138-34.446l17.53-27.2c8.197-12.72 12.53-27.441 12.53-42.572v-51.606h15.205v14.703c0 11.043 8.985 20.028 20.028 20.028h8.494v50.099h-11.865c-12.793 0-24.791 6.813-31.642 17.565l-17.529 27.199c-5.05 7.836-7.72 16.907-7.72 26.23v53.05c0 4.142 3.358 7.5 7.5 7.5s7.5-3.358 7.5-7.5v-53.05c0-6.436 1.842-12.696 5.328-18.104l17.565-27.256c4.259-6.389 11.21-10.634 18.997-10.634h11.865v56.405c0 12.99 14.668 21.325 25.839 14.537l10.034-6.096c5.044-3.064 8.178-8.634 8.178-14.536v-50.31h11.864c7.946 0 14.595 4.352 19.033 10.691l17.53 27.2c3.485 5.409 5.328 11.669 5.328 18.104v144.884c0 .173-.141.313-.313.313h-44.796l5.759-6.494c4.899-5.522 7.354-12.623 6.914-19.992-.44-7.371-3.725-14.127-9.249-19.026l-2.379-2.11c-10.488-9.303-26.135-9.155-36.448-.197-11.403-9.897-28.737-8.795-38.784 2.529l-10.823 12.2c-8.342 9.403-9.083 22.955-2.692 33.091h-18.437c-.173 0-.313-.141-.313-.313v-55.82c0-4.142-3.358-7.5-7.5-7.5s-7.5 3.358-7.5 7.5v55.817c0 8.444 6.87 15.313 15.313 15.313h150.935c8.444 0 15.313-6.87 15.313-15.313v-144.883c0-9.322-2.669-18.392-7.72-26.229l-17.555-27.238c-7.972-10.363-17.959-17.527-31.617-17.527h-11.864v-50.099h8.494c11.044 0 20.028-8.985 20.028-20.028v-14.703h15.204v51.605c0 15.131 4.333 29.853 12.53 42.573l17.53 27.2c6.632 10.291 10.138 22.202 10.138 34.446v144.883zm-98.822-26.173c-.203-3.404-1.021-6.673-2.377-9.692 4.704-4.401 12.095-4.583 17.014-.221l2.379 2.11c2.524 2.24 4.026 5.329 4.228 8.699.201 3.371-.921 6.618-3.162 9.144l-10.819 12.2c-2.24 2.525-5.329 4.026-8.699 4.228-3.194.191-6.267-.819-8.72-2.82l3.243-3.656c4.898-5.523 7.353-12.623 6.913-19.992zm-14.973.895c.202 3.37-.921 6.616-3.161 9.141l-10.823 12.2c-4.624 5.213-12.626 5.691-17.84 1.067l-2.382-2.112c-5.212-4.625-5.691-12.627-1.067-17.84l10.823-12.199c2.494-2.811 5.97-4.245 9.461-4.245 2.983 0 5.978 1.047 8.379 3.178l2.382 2.113c2.525 2.239 4.026 5.328 4.228 8.697z"/><circle cx="309.102" cy="408.192" r="7.508"/><circle cx="289.126" cy="379.192" r="7.508"/></g></svg>