<svg id="Capa_1" enable-background="new 0 0 512.001 512.001" height="512" viewBox="0 0 512.001 512.001" width="512" xmlns="http://www.w3.org/2000/svg"><g><path d="m512 256c0-8.284-6.716-15-15-15h-226v-59.518h45.25c41.493 0 75.25-33.757 75.25-75.25 0-8.284-6.716-15-15-15h-60.25c-18.262 0-35.021 6.544-48.067 17.403-7.047-23.647-26.685-41.918-51.113-46.979-6.419-35.023-37.146-61.656-73.996-61.656h-60.25c-8.284 0-15 6.716-15 15 0 41.493 33.757 75.25 75.25 75.25h60.25c20.775 0 37.677 16.902 37.677 37.677v113.073h-226.001c-8.284 0-15 6.716-15 15 0 68.38 26.629 132.667 74.981 181.019 48.347 48.347 112.626 74.976 180.999 74.981.008 0 .015.001.023.001.011 0 .021-.001.032-.001 68.367-.009 132.64-26.637 180.984-74.981 48.353-48.352 74.981-112.639 74.981-181.019zm-368.926-195.75c-19.695 0-36.493-12.649-42.695-30.25h42.695c19.695 0 36.493 12.649 42.695 30.25zm173.176 60.982h42.695c-6.202 17.601-23 30.25-42.695 30.25h-42.695c6.202-17.601 23-30.25 42.695-30.25zm-24.128 156.953c23.777 10.812 28.917 22.834 21.149 49.474-3.438 11.786-12.518 24.572-23.029 39.376-14.349 20.207-30.994 43.649-40.792 74.409-4.749-20.05-8.569-47.462-8.569-83.774 0-7.887-6.029-14.422-13.898-14.959-.264-.021-26.522-2.313-39.899-21.529-8.41-12.08-10.454-28.936-6.153-50.182h100.173c3.244 2.919 6.928 5.325 11.018 7.185zm-261.629-7.185h119.938c-4.388 27.132-.292 49.827 12.254 67.64 13.874 19.7 34.667 28.053 48.339 31.549.913 39.43 6.195 73.372 15.737 101.036 1.16 3.364 2.329 6.455 3.484 9.301-107.637-12.268-192.567-100.448-199.752-209.526zm241.267 210.447c4.124-42.345 24.619-71.24 42.942-97.044 11.579-16.306 22.515-31.708 27.369-48.345 8.049-27.606 5.267-48.883-8.845-65.059h148.282c-7.406 112.436-97.413 202.672-209.748 210.448z"/></g></svg>